<!DOCTYPE svg PUBLIC "-//W3C//DTD SVG 1.1//EN" "http://www.w3.org/Graphics/SVG/1.1/DTD/svg11.dtd">
<svg xmlns="http://www.w3.org/2000/svg" xmlns:xlink="http://www.w3.org/1999/xlink" width="272px" height="152px" version="1.1" style="background-color: rgb(255, 255, 255);"><defs/><g transform="translate(0.5,0.5)"><path d="M 160.96 28.11 C 160.96 19.2 168.08 14 174.69 14 C 181.64 14 188.14 19.95 188.14 27.81 C 188.14 36.09 181.5 41.89 174.74 41.89 C 167.06 41.89 160.96 35.77 160.96 28.11 Z M 167.6 69.85 C 162.83 69.53 159.07 68.08 159.07 62.84 C 159 60.05 159.02 57.09 159.12 53.98 C 159.17 51.42 159.8 48.68 161.01 46.52 C 161.93 44.85 163 43.46 164.18 42.39 C 170.21 46.71 178.52 47.04 184.91 42.39 C 186.27 43.63 187.55 45.25 188.47 47.26 C 189.52 49.6 190 51.91 189.98 54.23 C 189.98 57.78 189.83 61.24 189.42 64.43 C 188.67 68.78 185.06 69.83 180.8 69.93 C 178.4 70 169.87 69.98 167.6 69.85 Z" fill="#b3b3b3" stroke="none" pointer-events="none"/><path d="M 77.54 108.27 L 80.45 130.27 C 81 133.51 79.48 136.75 76.57 138.52 C 66.61 140 56.46 140 46.5 138.52 C 43.59 136.75 42.06 133.51 42.62 130.27 L 45.53 108.27 C 46.09 105.83 48.86 103.96 52.32 103.68 L 70.75 103.68 C 74.2 103.96 76.98 105.83 77.54 108.27 Z M 51.52 103.68 L 46.54 97.87 M 57.06 103.68 L 55.4 97.04 M 63.71 103.68 L 65.92 97.04 M 69.24 103.68 L 74.78 97.87 M 76.44 98.18 C 66.19 96.67 55.69 96.67 45.43 98.18 L 41 94.51 C 54.12 92 67.76 92 80.87 94.51 Z" fill="#ffffff" stroke="#999999" stroke-linejoin="round" stroke-miterlimit="10" transform="rotate(-180,61,116)" pointer-events="none"/><path d="M 136.44 23.28 L 139.43 47.36 C 140 50.89 138.44 54.44 135.45 56.38 C 125.21 58 114.79 58 104.55 56.38 C 101.56 54.44 100 50.89 100.57 47.36 L 103.56 23.28 C 104.13 20.61 106.98 18.56 110.53 18.26 L 129.47 18.26 C 133.02 18.56 135.87 20.61 136.44 23.28 Z" fill="#ffffff" stroke="#999999" stroke-width="2" stroke-miterlimit="10" transform="rotate(-90,120,36.5)" pointer-events="none"/><path d="M 135.67 17.77 C 136.49 18.08 136.94 19.08 136.67 20.01 C 136.39 20.94 135.5 21.44 134.67 21.13 C 124.82 18.7 114.62 18.7 104.77 21.13 C 104.15 20.95 103.66 20.43 103.46 19.75 C 103.25 19.07 103.38 18.33 103.78 17.77 C 114.26 15 125.18 15 135.67 17.77" fill="#ffffff" stroke="#999999" stroke-width="2" stroke-miterlimit="10" transform="rotate(-90,120,36.5)" pointer-events="none"/><rect x="106" y="52" width="29" height="3" rx="0.45" ry="0.45" fill="#ffffff" stroke="#999999" stroke-width="2" transform="rotate(6.6,120.5,53.5)" pointer-events="none"/><rect x="107" y="18" width="29" height="3" rx="0.45" ry="0.45" fill="#ffffff" stroke="#999999" stroke-width="2" transform="translate(121.5,0)scale(-1,1)translate(-121.5,0)rotate(-533.4,121.5,19.5)" pointer-events="none"/><path d="M 30 150 L 240 150" fill="none" stroke="#000000" stroke-miterlimit="10" pointer-events="none"/><path d="M 240 70 L 240 150" fill="none" stroke="#000000" stroke-miterlimit="10" pointer-events="none"/><path d="M 240 0 L 30 0" fill="none" stroke="#000000" stroke-miterlimit="10" pointer-events="none"/><path d="M 240 20 L 270 60" fill="none" stroke="#000000" stroke-miterlimit="10" pointer-events="none"/><path d="M 240 0 L 240 20" fill="none" stroke="#000000" stroke-miterlimit="10" pointer-events="none"/><path d="M 30 0 L 30 20" fill="none" stroke="#000000" stroke-miterlimit="10" pointer-events="none"/><path d="M 30 70 L 30 150" fill="none" stroke="#000000" stroke-miterlimit="10" pointer-events="none"/><path d="M 30 70 L 0 30" fill="none" stroke="#000000" stroke-miterlimit="10" pointer-events="none"/><path d="M 127.54 108.27 L 130.45 130.27 C 131 133.51 129.48 136.75 126.57 138.52 C 116.61 140 106.46 140 96.5 138.52 C 93.59 136.75 92.06 133.51 92.62 130.27 L 95.53 108.27 C 96.09 105.83 98.86 103.96 102.32 103.68 L 120.75 103.68 C 124.2 103.96 126.98 105.83 127.54 108.27 Z M 101.52 103.68 L 96.54 97.87 M 107.06 103.68 L 105.4 97.04 M 113.71 103.68 L 115.92 97.04 M 119.24 103.68 L 124.78 97.87 M 126.44 98.18 C 116.19 96.67 105.69 96.67 95.43 98.18 L 91 94.51 C 104.12 92 117.76 92 130.87 94.51 Z" fill="#ffffff" stroke="#999999" stroke-linejoin="round" stroke-miterlimit="10" transform="rotate(-180,111,116)" pointer-events="none"/><path d="M 177.54 108.27 L 180.45 130.27 C 181 133.51 179.48 136.75 176.57 138.52 C 166.61 140 156.46 140 146.5 138.52 C 143.59 136.75 142.06 133.51 142.62 130.27 L 145.53 108.27 C 146.09 105.83 148.86 103.96 152.32 103.68 L 170.75 103.68 C 174.2 103.96 176.98 105.83 177.54 108.27 Z M 151.52 103.68 L 146.54 97.87 M 157.06 103.68 L 155.4 97.04 M 163.71 103.68 L 165.92 97.04 M 169.24 103.68 L 174.78 97.87 M 176.44 98.18 C 166.19 96.67 155.69 96.67 145.43 98.18 L 141 94.51 C 154.12 92 167.76 92 180.87 94.51 Z" fill="#ffffff" stroke="#999999" stroke-linejoin="round" stroke-miterlimit="10" transform="rotate(-180,161,116)" pointer-events="none"/><path d="M 226.54 108.27 L 229.45 130.27 C 230 133.51 228.48 136.75 225.57 138.52 C 215.61 140 205.46 140 195.5 138.52 C 192.59 136.75 191.06 133.51 191.62 130.27 L 194.53 108.27 C 195.09 105.83 197.86 103.96 201.32 103.68 L 219.75 103.68 C 223.2 103.96 225.98 105.83 226.54 108.27 Z M 200.52 103.68 L 195.54 97.87 M 206.06 103.68 L 204.4 97.04 M 212.71 103.68 L 214.92 97.04 M 218.24 103.68 L 223.78 97.87 M 225.44 98.18 C 215.19 96.67 204.69 96.67 194.43 98.18 L 190 94.51 C 203.12 92 216.76 92 229.87 94.51 Z" fill="#ffffff" stroke="#999999" stroke-linejoin="round" stroke-miterlimit="10" transform="rotate(-180,210,116)" pointer-events="none"/></g></svg>